<svg version="1.1" xmlns="http://www.w3.org/2000/svg" viewBox="0 0 828 382" width="828" height="382">
  <!-- svg-source:excalidraw -->
  
  <defs>
    <style>
      @font-face {
        font-family: "Virgil";
        src: url("https://excalidraw.com/Virgil.woff2");
      }
      @font-face {
        font-family: "Cascadia";
        src: url("https://excalidraw.com/Cascadia.woff2");
      }
    </style>
  </defs>
  <rect x="0" y="0" width="828" height="382" fill="#ffffff"></rect><g transform="translate(10 60) rotate(0 23.5 -4)" stroke="none" fill="#495057"><path d="M NaN NaN Q NaN NaN NaN NaN -0.18190479480469646 -3.1973343382190658 NaN NaN NaN NaN NaN NaN -0.18190479480469646 -3.1973343382190658 0.8050619880088639 -3.5591466728505172 1.792028770822424 -3.9209590074819687 3.266326722666648 -4.613460642194952 4.740624674510872 -5.305962276907936 6.678274545443899 -6.194635941904009 8.615924416376926 -7.083309606900082 10.681636697371788 -8.087144072209853 12.74734897836665 -9.090978537519621 14.80750946531693 -10.247832945707467 16.86766995226721 -11.404687353895312 18.263703534832175 -12.454405511130494 19.659737117397142 -13.504123668365676 21.3114359335584 -15.290697113618306 22.963134749719657 -17.077270558870936 23.765875198753623 -17.390176183228554 24.56861564778759 -17.703081807586177 25.401967624485017 -17.48438877796619 26.23531960118245 -17.265695748346204 26.780970975036837 -16.59893736896076 27.326622348891227 -15.932178989575322 27.784577341319796 -15.44595714936624 28.242532333748365 -14.95973530915716 30.1882991472319 -12.969189501518061 32.13406596071543 -10.978643693878961 34.54565398535122 -8.648431802552416 36.957242009987006 -6.318219911225872 39.51844058232009 -3.5535592652099854 42.07963915465317 -0.7888986191940996 43.83177086674926 1.0999163320113468 45.58390257884535 2.988731283216793 47.069205485910665 4.322204169038052 48.55450839297598 5.655677054859312 48.765101840721435 6.561463431749669 48.97569528846689 7.467249808640027 48.36668243910348 8.170031360833693 47.75766958974007 8.87281291302736 46.83113859936976 8.793195800062302 45.90460760899945 8.713578687097243 45.424417954499646 7.917201605241648 44.944228299999835 7.120824523386053 45.30626249593334 6.264244228394241 45.66829669186684 5.407663933402429 46.574083068757204 5.197070485656978 47.47986944564756 4.986477037911526 48.18265099784122 5.595489887274935 48.885432550034885 6.204502736638344 48.805815437069825 7.131033727008653 48.72619832410477 8.05756471737896 47.929821242249176 8.53775437187877 47.13344416039358 9.017944026378576 46.276863865401765 8.655909830445076 45.42028357040996 8.293875634511574 44.35369202063322 6.8229548393406745 43.28710047085647 5.352034044169774 41.61718742665255 3.334385109969171 39.94727438244862 1.3167361757685676 37.29884326043439 -1.126846843353844 34.65041213842016 -3.5704298624762556 31.97348138566669 -5.573192631702902 29.296550632913224 -7.575955400929549 26.495732498012735 -9.889503642418367 23.694914363112243 -12.203051883907184 23.24106569709822 -14.185747170533308 22.7872170310842 -16.168442457159433 22.875175890401927 -16.622856508015182 22.963134749719657 -17.077270558870936 23.76587519875362 -17.390176183228554 24.568615647787585 -17.703081807586177 25.401967624485017 -17.48438877796619 26.23531960118245 -17.265695748346204 26.780970975036837 -16.59893736896076 27.326622348891227 -15.93217898957532 25.024514155404646 -12.614488253999296 22.722405961918064 -9.296797518423272 20.995048363712144 -8.097222951831851 19.267690765506227 -6.89764838524043 17.09305663575729 -5.822020836946342 14.91842250600835 -4.7463932886522535 12.860233419815714 -3.6955555127510853 10.802044333623076 -2.644717736849917 8.866647329556102 -1.6254324174709904 6.931250325489128 -0.6061470980920638 4.443683097658915 0.2700519220761113 1.956115869828702 1.1462509422442864 NaN NaN NaN NaN NaN NaN NaN NaN NaN NaN NaN NaN NaN NaN NaN NaN NaN NaN NaN NaN NaN NaN NaN NaN NaN NaN Z"></path></g><g transform="translate(20 40) rotate(0 18 -9.5)" stroke="none" fill="#495057"><path d="M 14.149852903640053 -23.188648124832135 Q 14.149852903640053 -23.188648124832135 14.986888350154256 -23.512328111576537 15.82392379666846 -23.83600809832094 14.986888350154256 -23.512328111576537 14.149852903640053 -23.188648124832135 14.986888350154256 -23.512328111576537 15.82392379666846 -23.83600809832094 16.691354020463258 -23.605873617229122 17.558784244258053 -23.375739136137305 18.12528038271276 -22.679693737003028 18.691776521167462 -21.98364833786875 19.150149876644008 -21.374694657399843 19.60852323212055 -20.765740976930935 21.454664068157904 -18.539094846434935 23.30080490419526 -16.312448715938938 25.049506585129542 -14.816382736337843 26.798208266063828 -13.32031675673675 28.03183908121931 -12.122350571005978 29.26546989637479 -10.924384385275204 30.30486028697845 -9.491018212194316 31.34425067758211 -8.05765203911343 32.61022029596317 -6.131453007954826 33.87618991434422 -4.205253976796222 35.45682109245993 -2.413111773590579 37.03745227057565 -0.6209695703849363 37.876215192470085 0.3454986080362894 38.71497811436451 1.311966786457515 38.426101409158434 2.558615986607664 38.13722470395235 3.805265186757813 36.958866847955974 4.304321037597518 35.78050899195959 4.803376888437222 34.68414295781037 4.143403026674774 33.58777692366115 3.4834291649123257 33.47727920768294 2.208527508387665 33.36678149170472 0.9336258518630043 34.33324967012595 0.0948629299685726 35.299717848547175 -0.7438999919258591 36.54636704869732 -0.455023286719779 37.79301624884747 -0.16614658151369888 38.292072099687175 1.0122112744826797 38.791127950526885 2.190569130479058 38.13115408876443 3.2869351646282796 37.47118022700199 4.383301198777501 36.19627857047733 4.4937989147557165 34.92137691395267 4.604296630733932 33.9034738445112 3.6805267090680434 32.885570775069716 2.7567567874021544 31.578986432108476 1.226439020260359 30.272402089147235 -0.30387874688143635 29.218457155179234 -2.071370855954296 28.164512221211233 -3.8388629650271553 27.114736413301777 -5.500700198888446 26.064960605392322 -7.162537432749738 24.929271249435928 -8.37466518683266 23.79358189347953 -9.586792940915581 21.92996881372885 -10.95139150779298 20.066355733978167 -12.315990074670378 17.83693393282855 -13.974731484474663 15.607512131678936 -15.633472894278949 14.520932282873098 -17.44678741109178 13.43435243406726 -19.26010192790461 13.659459726126455 -20.848479999307983 13.884567018185649 -22.436858070711352 14.01720996091285 -22.81275309777174 14.149852903640053 -23.18864812483213 14.986888350154256 -23.512328111576533 15.823923796668462 -23.836008098320935 16.691354020463258 -23.605873617229122 17.558784244258053 -23.375739136137305 18.12528038271276 -22.679693737003028 18.691776521167462 -21.983648337868747 10.481369164965583 -10.690574222193526 2.2709618087637047 0.6024998934816939 1.877033976866843 1.2123852030641125 1.483106144969981 1.8222705126465313 0.8059302438457672 2.08413312266181 0.1287543427215534 2.3459957326770886 -0.573011449762901 2.1598130264821496 -1.2747772422473553 1.9736303202872105 -1.7330822455049937 1.410517763531085 -2.191387248762632 0.8474052067749596 5.97923282743871 -11.170621459028588 Z"></path></g><g transform="translate(37 20) rotate(0 0.5 145)" stroke="none" fill="#495057"><path d="M 2.6247502152954008 -0.03621197739348566 Q 2.6247502152954008 -0.03621197739348566 2.384751305863461 0.7386406924986967 2.144752396431521 1.513493362390879 2.384751305863461 0.7386406924986967 2.6247502152954008 -0.03621197739348566 2.384751305863461 0.7386406924986967 2.144752396431521 1.513493362390879 1.4951422280075546 1.9992945209400843 0.8455320595835883 2.4850956794892896 0.034439637068007234 2.496285795903798 -0.7766527854475739 2.507475912318306 -1.4394177246713078 2.039780742465844 -2.1021826638950416 1.5720855726133818 -2.3634664395952214 0.8041487750034338 -2.6247502152954008 0.03621197739348598 -2.384751305863461 -0.7386406924986965 -2.144752396431521 -1.5134933623908788 -1.4951422280075548 -1.9992945209400843 -0.8455320595835886 -2.4850956794892896 -0.03443963706800779 -2.4962857959037983 0.776652785447573 -2.5074759123183066 1.4394177246713067 -2.039780742465845 2.1021826638950403 -1.572085572613384 2.3634664395952205 -0.8041487750034348 Z"></path></g><g transform="translate(35 17) rotate(0 5.5 129.5)" stroke="none" fill="#495057"><path d="M NaN NaN Q NaN NaN NaN NaN 10.681369211379383 255.61738622884747 NaN NaN NaN NaN NaN NaN 10.681369211379383 255.61738622884747 10.798686289676 252.97639507094465 10.916003367972618 250.33540391304186 11.762327456310329 249.74508251319878 12.60865154464804 249.15476111335568 13.583688407049086 249.49246947062937 14.558725269450132 249.83017782790304 14.85862575743414 250.8174992117089 15.158526245418148 251.80482059551477 14.536043551001736 252.62777813558924 13.913560856585322 253.4507356756637 12.881888073430813 253.4308589024952 11.850215290276305 253.4109821293267 11.259893890433219 252.564658040989 10.66957249059013 251.71833395265128 11.007280847863807 250.74329709025022 11.344989205137486 249.76826022784917 12.332310588943344 249.46835973986515 13.3196319727492 249.16845925188116 14.142589512823683 249.79094194629758 14.965547052898167 250.413424640714 14.945670279729654 251.4450974238685 14.925793506561144 252.476770207023 14.51089858744914 254.94518214788832 14.096003668337135 257.41359408875365 12.279467961705159 258.7988135451675 10.46293225507318 260.1840330015813 NaN NaN NaN NaN NaN NaN NaN NaN NaN NaN NaN NaN NaN NaN NaN NaN NaN NaN NaN NaN NaN NaN NaN NaN NaN NaN Z"></path></g><g transform="translate(34 26) rotate(0 3 51)" stroke="none" fill="#495057"><path d="M 2.6188300328322014 -0.17987289716933513 Q 2.6188300328322014 -0.17987289716933513 2.4216173355081048 0.6069582718762984 2.224404638184008 1.3937894409219318 2.4216173355081048 0.6069582718762984 2.6188300328322014 -0.17987289716933513 2.4216173355081048 0.6069582718762984 2.224404638184008 1.3937894409219318 1.6023684573332222 1.914430513331833 0.980332276482436 2.435071585741734 0.17106929095778406 2.490655367794516 -0.6381936945668679 2.546239149847298 -1.3255725301321821 2.1155345260220644 -2.0129513656974964 1.684829902196831 -2.315890699264849 0.9323513996830832 -2.6188300328322014 0.17987289716933547 -2.4216173355081048 -0.6069582718762979 -2.224404638184008 -1.3937894409219314 -1.6023684573332222 -1.9144305133318327 -0.9803322764824364 -2.435071585741734 -0.17106929095778473 -2.490655367794516 0.6381936945668669 -2.5462391498472985 1.3255725301321808 -2.1155345260220657 2.0129513656974947 -1.684829902196833 2.3158906992648483 -0.932351399683084 Z"></path></g><g transform="translate(37 32) rotate(0 385 170)" stroke="none" fill="#495057"><path d="M 2.6222048637969766 1.1712368662650925 Q 2.6222048637969766 1.1712368662650925 2.42177997944398 2.04911978257415 2.221355095090984 2.9270026988832076 2.42177997944398 2.04911978257415 2.6222048637969766 1.1712368662650925 2.42177997944398 2.04911978257415 2.221355095090984 2.9270026988832076 1.8492606140428491 4.0813593545694475 1.4771661329947146 5.235716010255688 1.6686894452100587 6.883069393989511 1.860212757425403 8.530422777723334 1.8787508818861143 10.194274680104444 1.8972890063468255 11.858126582485554 1.9049702105725894 13.865403436034597 1.9126514147983533 15.872680289583643 1.7918181757859455 18.040948597395197 1.6709849367735377 20.209216905206752 1.3066865772517895 21.76140702445936 0.9423882177300413 23.313597143711963 0.8998085025661855 25.34066074594566 0.8572287874023296 27.367724348179355 0.8369227733269597 29.656280076623304 0.8166167592515898 31.944835805067253 0.8206901028310504 33.75202403069872 0.8247634464105109 35.559212256330184 0.8165134186131364 37.73458077347955 0.808263390815762 39.90994929062891 0.7622077793376022 42.90528527159522 0.7161521678594424 45.90062125256153 0.6500626563252047 49.181580034236916 0.583973144790967 52.462538815912296 0.6253134181547146 54.49572374676381 0.6666536915184623 56.52890867761532 0.685799527869601 58.718482734959494 0.7049453642207397 60.90805679230366 0.6202460278355474 62.71107429366995 0.535546691450355 64.51409179503625 0.20387682568370075 66.64981878389115 -0.12779304008295356 68.78554577274605 -0.2803018548914672 70.59079507554009 -0.43281066969998083 72.39604437833411 -0.9030989791040829 74.67956319466042 -1.373387288508185 76.96308201098672 -1.784580266375713 79.7753412688813 -2.195773244243241 82.58760052677589 -2.2319283984646168 84.38384688667094 -2.2680835526859924 86.180093246566 -2.2497819086203528 87.76077829231633 -2.2314802645547127 89.34146333806667 -2.2138128152525156 90.84547406316855 -2.1961453659503185 92.34948478827042 -2.1937512343763013 93.88722487242774 -2.1913571028022845 95.42496495658506 -2.2246673685546954 97.39863316211381 -2.2579776343071067 99.37230136764256 -2.210801602308199 102.62627775189875 -2.1636255703092906 105.88025413615496 -1.8830615983144965 109.72119765929503 -1.6024976263197024 113.56214118243508 -1.4644386641007556 116.54104857816483 -1.3263797018818086 119.51995597389457 -1.219504943403884 123.04559772691348 -1.1126301849259594 126.5712394799324 -0.43585885524630263 130.26181562267797 0.24091247443335412 133.95239176542356 0.7093263388216351 137.47166994463376 1.177740203209916 140.99094812384396 1.3078078357839311 143.98970110264457 1.4378754683579462 146.98845408144518 1.604950298529932 149.3002359105281 1.7720251287019178 151.61201773961102 2.1154789242311804 154.28774756807255 2.458932719760443 156.96347739653407 2.453272660382646 160.83134034907485 2.447612601004849 164.69920330161563 2.4672990716865053 168.750006230172 2.486985542368162 172.80080915872836 2.4918673161913456 176.156531306788 2.496749090014529 179.51225345484767 2.497968361388117 183.0701705196692 2.499187632761705 186.62808758449074 2.4994922812313396 190.42381085356135 2.499796929700974 194.21953412263198 2.499873081540489 197.51220718130372 2.499949233380004 200.80488023997543 2.5269483349810957 203.1280481831649 2.5539474365821873 205.45121612635438 2.684724355372587 207.40075078815585 2.815501274162987 209.35028544995728 2.9968874170263513 210.85015127242343 3.178273559889716 212.3500170948896 3.2991549453079987 213.98499867877544 3.420036330726282 215.61998026266127 3.3899471925122686 217.6406679219382 3.359858054298255 219.6613555812151 2.9278714816511027 221.82472525802555 2.49588490900395 223.988094934836 2.031515804829046 226.75827959462228 1.5671467006541417 229.52846425440856 1.1896474019609844 232.16855533697577 0.812148103267827 234.80864641954298 0.7468383575508567 237.29164534371625 0.6815286118338864 239.77464426788956 0.5334348437575516 242.8199975841997 0.38534107568121684 245.8653509005099 -0.07047899674573813 247.8778149230495 -0.5262990691726931 249.8902789455891 -1.0503833033350929 251.45863134321746 -1.5744675374974926 253.0269837408458 -2.1089654549145926 254.8694375241388 -2.6434633723316923 256.71189130743176 -3.0489643692942243 258.42529282296005 -3.454465366256756 260.13869433848834 -4.097609768644997 262.25192072861114 -4.740754171033238 264.3651471187339 -5.669886564288744 266.3994210107054 -6.59901895754425 268.43369490267685 -6.866092798833388 270.70796937162567 -7.133166640122526 272.9822438405745 -7.284972081282108 275.2267991062479 -7.436777522441691 277.4713543719213 -7.478212678781517 279.57876974341065 -7.519647835121344 281.6861851149 -7.476806002739497 283.77561523005 -7.433964170357651 285.86504534520003 -7.01441182617493 288.49807526335394 -6.594859481992209 291.1311051815079 -6.423505615300447 292.8820356296478 -6.252151748608684 294.63296607778767 -5.778233765463625 296.2833686720443 -5.304315782318567 297.9337712663009 -4.560985247180483 299.5161555180031 -3.8176547120423985 301.0985397697053 -3.494174430173636 302.9729883381689 -3.1706941483048734 304.8474369066324 -2.6160164224685496 306.86030461543754 -2.061338696632226 308.87317232424266 -1.812531703254323 311.13732034116305 -1.56372470987642 313.40146835808343 -2.2089614842688574 313.98349271612074 -2.8541982586612953 314.56551707415804 -3.718311108669774 314.65712401072574 -4.582423958678253 314.74873094729344 -5.335351145715073 314.31492972622794 -6.088278332751893 313.88112850516245 -5.97763025471086 313.2923533625526 -5.866982176669828 312.7035782199427 -4.355933458368469 310.8226028229436 -2.8448847400671093 308.9416274259445 2.737573472698965 308.63677542568337 8.32003168546504 308.33192342542225 16.27500434374513 308.4429792972002 24.229977002025223 308.5540351689782 30.98722720371557 308.5337644725056 37.74447740540592 308.513493776033 42.902604019046876 308.5084331649706 48.060730632687836 308.50337255390815 52.72544549472979 308.5021077708103 57.390160356771744 308.50084298771253 60.71257983033848 308.5005268639194 64.03499930390521 308.50021074012625 67.02187068991557 308.50013171204193 70.00874207592592 308.5000526839577 73.66171504493897 308.5000329273972 77.31468801395201 308.50001317083684 80.75917996130963 308.5000082317708 84.20367190866725 308.5000032927047 87.5022949152792 308.50000205794026 90.80091792189114 308.50000082317587 94.71932371342288 308.5000005144849 98.63772950495463 308.5000002057939 102.52358094165562 308.5000001286212 106.40943237835661 308.50000005144847 108.76999820020518 308.37692352809165 111.13056402205376 308.2538470047348 113.17892868740331 307.52206732492766 115.22729335275287 306.7902876451205 118.28299667498982 305.55955113421345 121.33869999722678 304.3288146233064 123.98449658294166 303.75478326209964 126.63029316865655 303.1807519008929 128.36780761923927 302.53438443103 130.10532206982197 301.88801696116707 132.03564960124345 300.9454248580971 133.9659771326649 300.00283275502716 136.44033469788064 298.7491746839789 138.91469226309636 297.4955166129306 142.08201659706367 296.13158458679436 145.24934093103099 294.76765256065806 149.37639877240696 293.2146344118817 153.50345661378296 291.6616162631054 158.9562291841771 289.8470149340484 164.40900175457122 288.03241360499135 170.4298136052372 286.62303338848835 176.4506254559032 285.2136531719854 180.52484889642412 284.57558880590034 184.59907233694503 283.9375244398152 187.83483129015377 283.7721044303884 191.07059024336252 283.60668442096164 194.04341172620616 283.56662140750245 197.0162332090498 283.5265583940433 201.55320042558964 283.89609241449455 206.0901676421295 284.2656264349458 213.24271277697142 285.87091174038375 220.3952579118133 287.4761970458217 228.0740127957095 289.37764974082927 235.75276767960568 291.27910243583676 244.12877045298575 293.2514924733674 252.5047732263658 295.2238825108981 259.96765230488677 297.2234392849767 267.4305313834077 299.2229960590553 273.4358874677616 301.03962158372565 279.44124355211545 302.856247108396 284.18722004418464 304.0504769377271 288.9331965362539 305.24470676705823 293.76214120889483 306.29037002509807 298.59108588153583 307.3360332831379 302.9276281940515 308.4497054530525 307.2641705065672 309.5633776229671 313.81513030056306 310.7651423231584 320.36609009455896 311.9669070233497 327.31749369936995 312.8257267884028 334.268897304181 313.68454655345596 341.9461272014528 314.8418682807645 349.6233570987245 315.99919000807307 358.0360068243664 316.5615846491421 366.4486565500083 317.1239792902112 374.2500211103146 317.26464463138825 382.0513856706209 317.4053099725653 388.9802385313044 317.53483339802176 395.90909139198794 317.6643568234782 403.00444388228016 317.97852227180863 410.0997963725724 318.292687720139 417.3744997485753 318.370260661489 424.6492031245782 318.447833602839 431.905798364671 318.4673872747263 439.16239360476385 318.4869409466136 446.8733992677418 318.39831595210717 454.58440493071964 318.30969095760076 462.58787671282914 318.0066925801714 470.59134849493864 317.70369420274193 479.26609157553844 317.5337688721089 487.9408346561382 317.36384354147594 494.2932755695007 316.94767921533196 500.64571648286324 316.531514889188 506.8376639767559 316.1460051739947 513.0296114706485 315.7604954588014 519.5815067869398 315.66247938862386 526.1334021032312 315.5644633184463 532.6459939264788 315.5402704573347 539.1585857497264 315.5160775962231 544.6302116780889 315.5100476654642 550.1018376064515 315.5040177347052 555.3129142943544 315.5025840393181 560.5239909822573 315.50115034393104 564.6949021083472 315.3170897380321 568.8658132344369 315.1330291321332 572.3668441430056 314.5310103485533 575.8678750515742 313.9289915649734 579.0763741909516 313.6742934592453 582.2848733303291 313.4195953535172 585.0111746499173 313.0739116947303 587.7374759695055 312.7282280359435 590.0539192944591 312.5338094460234 592.3703626194126 312.3393908561032 595.7146580505677 311.9405078781963 599.0589534817227 311.54162490028943 601.8677348024368 311.13017718249716 604.6765161231508 310.71872946470484 606.501028721465 310.41768586867306 608.3255413197791 310.11664227264123 610.2510607228521 309.5762317032682 612.1765801259253 309.0358211338952 616.1210733310985 308.3264593728096 620.0655665362717 307.617097611724 625.2616397586993 306.46516927183325 630.4577129811269 305.3132409319426 635.1517204114871 303.7304761130041 639.8457278418472 302.14771129406563 644.7450429752869 300.88753489669 649.6443581087267 299.6273584993143 654.2920644932491 298.20033048434493 658.9397708777715 296.7733024693755 663.6975652702008 295.4705898425932 668.4553596626301 294.1678772158109 672.5960282768575 293.3625058099329 676.7366968910849 292.55713440405486 680.2828609562498 291.7997606452976 683.8290250214147 291.04238688654044 686.7900160333546 290.83619962294165 689.7510070452945 290.63001235934286 691.8839453844707 290.51546284876963 694.0168837236471 290.40091333819635 696.6809962231204 290.2005607721292 699.3451087225936 290.0002082060621 701.7471564128667 290.0021028334904 704.1492041031398 290.00399746091875 706.3432193811584 290.001101584037 708.5372346591771 289.9982057071552 711.8046466605009 290.17710931218323 715.0720586618247 290.3560129172113 718.0643094312771 290.4528266938555 721.0565602007296 290.54964047049975 724.378145492132 290.907272497495 727.6997307835344 291.2649045244902 730.0725387473394 291.3445169743072 732.4453467111445 291.4241294241243 735.6770673103658 291.74970475672046 738.9087879095873 292.07528008931666 741.513292571208 292.57512537314926 744.1177972328287 293.0749706569818 746.7389678970715 293.60434149126047 749.3601385613141 294.1337123255392 751.255496343367 294.422999368144 753.1508541254199 294.7122864107488 754.9951132449776 294.63868090211804 756.8393723645352 294.56507539348735 759.1045587002548 294.3737305406697 761.3697450359743 294.1823856878521 763.6437746721411 293.7934897753536 765.917804308308 293.404593862855 767.7333738103777 293.34611927362755 769.5489433124474 293.28764468440005 773.390573670408 293.89258195776233 777.2322040283685 294.4975192311246 777.7379534564999 295.19347856958404 778.2437028846313 295.8894379080435 778.2437881315433 296.7497528954621 778.2438733784553 297.61006788288074 777.738261882725 298.3061274350955 777.2326503869947 299.0021869873103 776.7600091056191 298.485562212138 776.2873678242436 297.9689374369657 774.2809437562582 295.85586526924294 772.274519688273 293.74279310152025 769.6756277803827 290.9766931403996 767.0767358724923 288.210593179279 763.4344749428772 283.69324673329777 759.792214013262 279.1759002873166 755.700286323035 274.5156942243494 751.608358632808 269.85548816138214 749.3610053297826 267.18159112890004 747.1136520267573 264.50769409641794 745.4555549791341 263.14507458424737 743.797457931511 261.7824550720768 743.7067244938726 261.32789668790315 743.6159910562343 260.87333830372955 743.80976887775 260.45226106946393 744.0035466992657 260.03118383519825 744.4078192383823 259.8044249424412 744.812091777499 259.5776660496841 744.90162051129 259.6946672236344 744.991149245081 259.8116683975847 746.0039968836202 260.77440392316953 747.0168445221593 261.7371394487544 750.3142445919837 264.35433375836385 753.6116446618079 266.9715280679732 758.202539511346 270.3616514198804 762.7934343608841 273.75177477178755 767.7200103220034 277.5292672464692 772.6465862831227 281.3067597211508 775.1308370510258 283.4976678304109 777.6150878189288 285.68857593967095 778.667785422409 286.7749564141858 779.7204830258893 287.8613368887006 780.534656794927 289.18186027940794 781.3488305639646 290.50238367011525 781.910634211434 292.5444381773003 782.4724378589034 294.58649268448534 782.6956612642956 298.27084466779263 782.9188846696878 301.9551966510999 782.6704169469137 304.96774366706654 782.4219492241398 307.9802906830331 781.7319179563472 309.9499336282106 781.0418866885547 311.91957657338804 779.0418929741991 313.022393933137 777.0418992598434 314.12521129288587 772.5230523385019 315.93974476541524 768.0042054171603 317.7542782379446 761.4917227119884 320.7926100665834 754.9792400068166 323.8309418952221 748.1686392938658 326.66479129414176 741.358038580915 329.4986406930615 737.4427568272349 331.40922486586294 733.5274750735548 333.3198090386644 731.3369958427979 334.25469449071113 729.1465166120411 335.1895799427579 727.5460892300896 336.1595046225657 725.945661848138 337.12942930237347 725.000409110984 338.3805526232883 724.0551563738301 339.63167594420315 722.4183921166862 340.6532382109449 720.7816278595424 341.6748004776866 719.74650786918 342.01072431732746 718.7113878788177 342.3466481569683 717.8311915190445 341.7066695723823 716.9509951592712 341.0666909877963 716.9513822708411 339.9784272005501 716.9517693824109 338.8901634133039 717.8324208191277 338.2508111883954 718.7130722558445 337.6114589634869 719.7479529980992 337.94811913308985 720.7828337403539 338.2847793026928 721.1187575799947 339.3198992930552 721.4546814196357 340.3550192834175 720.8147028350497 341.2352156431907 720.1747242504637 342.115412002964 719.0864604632175 342.1150248913941 717.9981966759713 342.11463777982425 717.3588444510627 341.2339863431075 716.7194922261542 340.3533349063907 717.0561523957572 339.318454164136 717.3928125653601 338.2835734218813 719.2639897362114 337.4965908964904 721.1351669070626 336.7096083710994 722.9315187228376 335.7391979236373 724.7278705386126 334.76878747617513 726.418561998097 333.66419304175645 728.1092534575812 332.55959860733776 730.1716417034797 331.58701866061824 732.2340299493784 330.61443871389866 736.211005730098 328.67639451554464 740.1879815108176 326.7383503171906 746.946410935466 323.92768623148856 753.7048403601143 321.11702214578645 760.2184782053387 318.07730003593804 766.732116050563 315.0375779260897 770.8177513308062 312.78989564467054 774.9033866110493 310.54221336325134 777.1336742187452 309.53498118735064 779.363961826441 308.52774901144994 779.4677944211165 307.85233384291234 779.571627015792 307.1769186743747 779.3127370700504 304.5822849538908 779.0538471243086 301.9876512334069 779.0851443105216 298.98127871151183 779.1164414967348 295.9749061896168 778.6237708916807 293.51932326633107 778.1311002866266 291.0637403430454 776.9435454942909 289.55806440672126 775.755990701955 288.0523884703971 773.2801278837047 285.86229389259483 770.8042650654544 283.6721993147926 765.9071180494393 279.91813034338924 761.0099710334243 276.1640613719859 756.3059739744253 272.6779389395532 751.6019769154263 269.19181650712045 748.6721750096293 266.6702437875815 745.7423731038323 264.1486710680425 744.8608000295999 263.11908724842755 743.9792269553675 262.0895034288126 743.8883424434392 261.9359792504447 743.797457931511 261.7824550720768 743.7067244938726 261.32789668790315 743.6159910562343 260.87333830372955 743.80976887775 260.45226106946393 744.0035466992657 260.03118383519825 744.4078192383823 259.8044249424412 744.812091777499 259.5776660496841 747.0962100508646 261.0646757684782 749.3803283242302 262.55168548727227 751.6239455476857 265.21685783032547 753.8675627711414 267.88203017337867 757.9895171868386 272.5781016125526 762.1114716025359 277.2741730517265 765.8247390966172 281.68193661430996 769.5380065906986 286.08970017689336 773.054417404498 290.6295111457549 776.5708282182974 295.16932211461653 777.0408012814119 295.2094581243935 777.5107743445263 295.2495941341705 777.3714891864474 294.8735566826475 777.2322040283685 294.4975192311246 777.7379534564999 295.19347856958404 778.2437028846313 295.8894379080435 778.2437881315433 296.7497528954621 778.2438733784553 297.61006788288074 777.738261882725 298.3061274350955 777.2326503869947 299.0021869873103 774.5675897625667 298.855506247593 771.9025291381387 298.7088255078756 770.1107380449134 298.7000265064596 768.3189469516882 298.6912275050436 766.4648371477936 298.71439872358917 764.6107273438988 298.73756994213466 761.8926351570819 299.03397514080996 759.1745429702651 299.3303803394852 757.2294052087561 299.3278445399493 755.2842674472473 299.3253087404134 753.6733127072987 299.0411808851648 752.0623579673502 298.7570530299162 750.3572786398852 298.23237042731995 748.6521993124201 297.7076878247237 746.0418767872637 297.24915888439676 743.4315542621074 296.79062994406985 740.8600861661323 296.3388761294799 738.2886180701571 295.8871223148899 735.2366961421935 295.37114533863223 732.1847742142298 294.8551683623745 729.8095130671622 294.592008853552 727.4342519200948 294.3288493447295 724.2068112669407 294.0771121755543 720.9793706137866 293.8253750063791 718.0255176050132 293.7347119983416 715.0716645962398 293.64404899030404 711.8046614846604 293.8230454566051 708.5376583730811 294.0020419229062 706.3440131994871 293.9995174911164 704.150368025893 293.9969930593266 701.7517739097154 294.0003734671229 699.3531797935378 294.0037538749193 696.7206306950127 293.8312882634521 694.0880815964874 293.6588226519849 692.0137697918003 293.6411917377261 689.9394579871131 293.62356082346736 687.1861465476643 293.79773333408394 684.4328351082154 293.97190584470053 680.8717893678256 294.73597118280475 677.310743627436 295.500036520909 673.2725730194444 296.2804215024769 669.2344024114528 297.0608064840447 664.5268399150063 298.35111940704576 659.81927741856 299.6414323300469 655.1055562475794 301.086506514211 650.3918350765989 302.5315806983751 645.5954399880271 303.75981309753354 640.7990448994553 304.98804549669205 635.9602114417694 306.6089158638901 631.1213779840834 308.22978623108816 625.9360876543267 309.3923986357435 620.7507973245698 310.5550110403989 616.9198363210052 311.6038122574975 613.0888753174405 312.65261347459614 610.9125778855622 313.14485481796004 608.7362804536839 313.63709616132394 606.9035257121925 313.7166602162398 605.070770970701 313.79622427115567 602.2504829321929 314.1572071571541 599.4301948936846 314.5181900431526 596.0082128879509 314.9590294804087 592.5862308822171 315.3998689176648 590.3375644596151 315.56433998839657 588.0888980370132 315.7288110591284 585.3047603663795 316.06868604294954 582.5206226957457 316.40856102677066 579.4373658742355 316.64609749147434 576.3541090527253 316.883633956178 572.6881161177432 317.5005534543253 569.0221231827611 318.11747295247255 564.7749389346482 318.3091654734822 560.5277546865351 318.50085799449187 555.3164498776264 318.50243680673896 550.1051450687177 318.5040156189861 544.6372450098336 318.510035718764 539.1693449509496 318.516055818542 532.6738328252113 318.540063079578 526.178320699473 318.56407034061397 519.6978002198209 318.65885475902684 513.2172797401687 318.7536391774397 507.02956405028726 319.13933141660806 500.84184836040583 319.5250236557764 494.425636538672 319.943667147079 488.00942471693816 320.3623106383816 479.35955685715237 320.5316165775349 470.7096889973665 320.7009225166882 462.66471701793375 321.00484921840405 454.619745038501 321.3087759201199 446.8869756553099 321.3978512421945 439.1542062721189 321.4869265642692 431.885701327536 321.46728150248055 424.6171963829531 321.4476364406919 417.2914990202531 321.36841444733835 409.96580165755313 321.2891924539848 402.90955119303374 320.97617816350083 395.85330072851434 320.66316387301686 388.9257417699514 320.5339683432159 381.99818281138846 320.404772813415 374.1239000947087 320.26056233356235 366.2496173780289 320.1163518537098 357.70967799572657 319.53924321066035 349.16973861342416 318.9621345676109 341.53661207891895 317.8114431584454 333.90348554441374 316.6607517492799 326.86346342211687 315.78751896843664 319.82344129981993 314.91428618759346 313.1586981853841 313.6878407041995 306.4939550709483 312.4613952208055 302.21768574973737 311.362226656379 297.9414164285264 310.26305809195253 293.06911456626074 309.207358412628 288.196812703995 308.1516587333035 283.38780305643763 306.9404368131773 278.5787934088803 305.7292148930511 272.6142049347278 303.92403341989217 266.6496164605754 302.11885194673323 259.23271730507093 300.1311807294946 251.81581814956652 298.14350951225595 243.4227079868451 296.16698758451764 235.02959782412367 294.19046565677934 227.38190096361393 292.296270490711 219.7342041031042 290.4020753246427 212.83094226032233 288.82476918577726 205.9276804175405 287.24746304691183 201.49141972358535 286.88663129014947 197.05515902963018 286.5257995333871 194.13506887049385 286.5642734110736 191.2149787113575 286.60274728876004 188.1290910966463 286.7514748439158 185.0432034819351 286.90020239907153 181.08084065077622 287.5187282913165 177.11847781961734 288.13725418356154 171.2429445835642 289.504235000379 165.36741134751105 290.87121581719646 159.98480357102864 292.6620586214211 154.60219579454625 294.45290142564585 150.63773224841606 296.0716598099964 146.67326870228587 297.6904181943469 143.7245074862284 299.2635923007181 140.77574627017088 300.83676640708927 138.2857616352875 302.3315328660709 135.79577700040414 303.82629932505256 133.61873573142918 304.8774053421022 131.44169446245422 305.92851135915174 129.4997337114512 306.506936369767 127.5577729604482 307.0853613803822 125.23566873982023 307.6604999410881 122.91356451919224 308.2356385017941 119.78328347622457 309.30470667909435 116.65300243325692 310.37377485639456 114.05358549367989 310.87246393795 111.45416855410285 311.3711530195054 108.9318004944096 311.4355765354769 106.40943243471635 311.50000005144847 102.52358109102678 311.5000001286212 98.63772974733723 311.5000002057939 94.71932441730678 311.5000005144848 90.80091908727633 311.5000008231756 87.50229760763948 311.50000205793845 84.20367612800263 311.5000032927013 80.75919013036504 311.5000082317441 77.31470413272746 311.50001317078693 73.6617653217597 311.5000329266621 70.00882651079193 311.5000526825372 67.02205077687906 311.50013170419527 64.03527504296618 311.5002107258534 60.713106036839974 311.50052680102976 57.390937030713765 311.5008428762061 52.727297973983966 311.50210688898613 48.06365891725417 311.5033709017662 42.90836985580816 311.50842547421513 37.75308079436214 311.5134800466641 31.00666829570458 311.533670084237 24.260255797047016 311.55386012180986 16.45057765393546 311.8267589297699 8.640899510823909 312.0996577377299 3.8522196051621957 312.58247315503985 -0.9364603004995167 313.0652885723498 -1.4042557197276655 313.2241826322953 -1.8720511389558143 313.3830766922409 -1.7178879244161172 313.3922725251622 -1.56372470987642 313.40146835808343 -2.2089614842688574 313.98349271612074 -2.8541982586612953 314.56551707415804 -3.7183111086697735 314.65712401072574 -4.582423958678252 314.74873094729344 -5.335351145715072 314.31492972622794 -6.088278332751893 313.88112850516245 -6.740165021648707 310.8656133142033 -7.392051710545521 307.8500981232441 -7.92104267988743 305.7151873551388 -8.450033649229338 303.58027658703355 -9.355089025830331 301.4677284411677 -10.260144402431322 299.35518029530186 -10.930437181806614 296.25016867273666 -11.600729961181905 293.1451570501715 -12.085044807096423 290.85129184314536 -12.569359653010942 288.5574266361192 -13.0142183549708 286.53412317124526 -13.459077056930662 284.51081970637125 -13.138296711215489 282.7859123508507 -12.817516365500316 281.0610049953302 -12.641711570973953 279.1311549228062 -12.465906776447593 277.20130485028227 -12.224171256021329 273.74093760457595 -11.982435735595063 270.2805703588696 -11.450923065434523 267.6494409422934 -10.919410395273985 265.0183115257172 -10.065989546265268 263.0998706441546 -9.212568697256549 261.18142976259196 -8.783264752768492 259.23991049806193 -8.353960808280434 257.29839123353185 -7.636381777999766 255.52277745243637 -6.9188027477190985 253.7471636713409 -6.229254500856722 251.5638740569283 -5.539706253994345 249.38058444251573 -5.149179841881696 247.49521953183196 -4.758653429769047 245.6098546211482 -4.7073687670020306 242.6537698783596 -4.656084104235015 239.69768513557102 -4.6445920341486095 237.73157146622918 -4.633099964062204 235.76545779688735 -4.2519684158233115 233.46278574057254 -3.870836867584419 231.16011368425774 -3.6253177751532792 229.2175904383651 -3.379798682722139 227.27506719247248 -3.0774902333744496 225.2241044160549 -2.7751817840267607 223.17314163963732 -2.301894919344993 221.29578562499742 -1.8286080546632255 219.41842961035752 -1.6243222041950451 217.5000070368717 -1.4200363537268648 215.58158446338584 -1.2991551436731288 213.96580176943934 -1.1782739336193926 212.35001907549287 -0.9968905937286019 210.85015617582758 -0.8155072538378113 209.35029327616232 -0.6847400367647289 207.40076689156604 -0.5539728196916465 205.45124050696973 -0.5270117927547444 203.1280934001453 -0.5000507658178424 200.80494629332085 -0.5001269126350852 197.512359151937 -0.5002030594523281 194.21977201055313 -0.5005076056097246 190.4244544794015 -0.5008121517671211 186.62913694824988 -0.5020296589016578 183.07289081218235 -0.5032471660361946 179.51664467611482 -0.5081125062455087 176.16571402061828 -0.512977846454823 172.8147833651217 -0.5322798319031574 168.7889750794532 -0.5515818173514917 164.76316679378468 -0.7131957012492524 161.07458488942592 -0.874809585147013 157.38600298506714 -1.1551710876976053 154.58595338593045 -1.4355325902481977 151.78590378679374 -1.5137189523956316 149.44456790548384 -1.5919053145430655 147.1032320241739 -1.6928824512467293 144.2395141614032 -1.7938595879503931 141.3757962986325 -2.249624800672828 137.94519111155745 -2.7053900133952626 134.5145859244824 -3.4753349921584684 130.65562860208695 -4.245279970921675 126.7966712796915 -4.675270446215201 123.37417917214624 -5.105260921508727 119.95168706460099 -5.614662894375583 116.88805901807406 -6.12406486724244 113.82443097154713 -6.4270329183421975 111.28654926653283 -6.730000969441956 108.74866756151854 -7.101359852498295 106.7527245606029 -7.472718735554633 104.75678155968725 -7.6073697741190145 102.06878913018579 -7.742020812683396 99.38079670068433 -7.769112870593958 96.9527618400248 -7.796204928504518 94.5247269793653 -7.78991484343945 92.83518329435336 -7.7836247583743825 91.14563960934142 -7.760984952273379 89.61376422561062 -7.738345146172375 88.08188884187985 -7.685912636949034 86.08432567088099 -7.633480127725692 84.08676249988214 -7.242843088258395 81.58934717088388 -6.852206048791098 79.09193184188562 -6.645318754836202 77.1176354975933 -6.438431460881306 75.14333915330097 -6.177615083090651 73.57260814039914 -5.916798705299996 72.00187712749731 -5.703096582608348 69.80018933672005 -5.489394459916698 67.59850154594281 -5.199970575680741 65.864583424964 -4.910546691444784 64.13066530398518 -4.8077460277881965 62.51936104801216 -4.704945364131609 60.908056792039126 -4.685799527111992 58.718482731954126 -4.6666536900923745 56.52890867186913 -4.625313406032969 54.495723723854006 -4.583973121973564 52.46253877583888 -4.638414026780916 50.29716799183149 -4.692854931588268 48.13179720782411 -4.739064899302437 45.367138894750596 -4.785274867016605 42.60248058167709 -4.794981911116836 40.3710846880526 -4.804688955217067 38.1396887944281 -4.806742421051751 36.18730302412057 -4.8087958868864344 34.23491725381304 -4.821801952636465 31.871672601602313 -4.834808018386496 29.508427949391592 -4.830022290579732 26.936294747049544 -4.82523656277297 24.364161544707493 -4.47977883527395 22.320048053046833 -4.13432110777493 20.27593456138617 -4.025066232172467 18.431261598695468 -3.9158113565700043 16.586588636004766 -3.9097691459115618 14.65056013977272 -3.903726935253119 12.714531643540674 -3.884532742237304 10.798549536463804 -3.865338549221489 8.882567429386935 -3.834706874552137 7.227443177944167 -3.8040751998827846 5.572318926501399 -3.744292186173607 4.566478015538172 -3.6845091724644288 3.560637104574944 -3.2957827665720374 2.4556193611729085 -2.907056360679646 1.3506016177708728 -2.8358434864589785 0.7201419967618815 -2.764630612238311 0.08968237575289018 -2.5269888692832105 -0.731386080038546 -2.28934712632811 -1.5524545358299822 -1.6144789882677901 -2.0770305582723623 -0.9396108502074704 -2.6016065807147424 -0.08529300785661648 -2.6293199589183054 0.7690248344942374 -2.6570333371218684 1.4764720025530726 -2.1772985025559333 2.183919170611908 -1.6975636679899981 2.4030620172044426 -0.2631634008624528 Z"></path></g><g transform="translate(56 321) rotate(0 27 -11)" stroke="none" fill="#5c940d"><path d="M NaN NaN Q NaN NaN NaN NaN 20.563163327824594 -17.037208405437962 NaN NaN NaN NaN NaN NaN 20.563163327824594 -17.037208405437962 20.65365534987226 -16.918515238174884 20.744147371919922 -16.79982207091181 23.1366391864522 -17.428385080408216 25.529131000984474 -18.056948089904623 28.013755823462795 -19.085289200677828 30.49838064594111 -20.11363031145103 32.1531121336035 -20.808756684433348 33.807843621265896 -21.50388305741567 35.43677325218658 -22.277301943650375 37.06570288310728 -23.05072082988508 38.93296246493519 -23.43653480544601 40.800222046763096 -23.822348781006934 42.68713625692319 -23.91731688960939 44.57405046708328 -24.012284998211847 46.76776975146929 -23.11248405650416 48.9614890358553 -22.212683114796477 52.002516187601785 -21.834086368491818 55.04354333934827 -21.455489622187162 55.80204397284493 -20.492848601278844 56.56054460634159 -19.530207580370522 56.227587147168144 -18.35074148228588 55.8946296879947 -17.171275384201238 54.74471408621219 -16.747370849043357 53.59479848442968 -16.323466313885476 52.575949079385566 -17.00460274367872 51.557099674341444 -17.685739173471966 51.50928596694016 -18.91036760509308 51.46147225953888 -20.134996036714195 52.4241132804472 -20.893496670210858 53.386754301355516 -21.651997303707518 54.566220399440155 -21.319039844534075 55.7456864975248 -20.98608238536063 56.16959103268269 -19.836166783578122 56.59349556784057 -18.686251181795615 55.91235913804732 -17.667401776751493 55.23122270825408 -16.64855237170737 54.00659427663297 -16.600738664306085 52.781965845011854 -16.552924956904803 50.08604603029319 -16.862181080521164 47.390126215574526 -17.171437204137526 45.66059969214295 -17.95174151807009 43.93107316871138 -18.732045832002655 41.987992498127355 -18.685317195085602 40.04491182754334 -18.638588558168546 37.96934408785362 -17.687179134011572 35.893776348163904 -16.735769709854594 34.2786871739828 -16.028904144020302 32.66359799980171 -15.32203857818601 30.874772990443518 -14.455710409491816 29.085947981085326 -13.589382240797622 27.506236127547503 -12.943062370481428 25.926524274009683 -12.296742500165236 23.005043536248557 -11.993926552961472 20.083562798487428 -11.69111060575771 18.496925188366625 -12.786796753584554 16.910287578245818 -13.882482901411397 NaN NaN NaN NaN NaN NaN NaN NaN NaN NaN NaN NaN NaN NaN NaN NaN NaN NaN NaN NaN NaN NaN NaN NaN NaN NaN Z"></path></g><g transform="translate(43 327) rotate(0 19.5 -13)" stroke="none" fill="#5c940d"><path d="M -1.1987413559444096 -2.335303869210291 Q -1.1987413559444096 -2.335303869210291 -0.39794315541007264 -2.464603438384096 0.4028550451242643 -2.593903007557901 -0.39794315541007264 -2.464603438384096 -1.1987413559444096 -2.335303869210291 -0.39794315541007264 -2.464603438384096 0.4028550451242643 -2.593903007557901 1.126714778309553 -2.2278111840484347 1.8505745114948415 -1.8617193605389684 2.221005962341732 -1.1400707779234187 2.5914374131886224 -0.41842219530786895 2.4669483579755385 0.3831379157878097 2.342459302762455 1.1846980268834884 1.7706003293534325 1.7600009480468897 1.1987413559444098 2.335303869210291 0.39794315541007286 2.464603438384096 -0.40285504512426407 2.593903007557901 -1.1267147783095526 2.2278111840484347 -1.8505745114948413 1.8617193605389684 -2.221005962341732 1.1400707779234192 -2.591437413188623 0.41842219530786995 -2.4669483579755394 -0.3831379157878081 -2.3424593027624563 -1.1846980268834861 -1.770600329353433 -1.7600009480468886 Z"></path></g><g transform="translate(49 325) rotate(0 317 -157.5)" stroke="none" fill="#5c940d"><path d="M -0.11587723984787912 -1.9013509132066675 Q -0.11587723984787912 -1.9013509132066675 1.885378621318161 -3.256517336946987 3.886634482484201 -4.611683760687306 1.885378621318161 -3.256517336946987 -0.11587723984787912 -1.9013509132066675 1.885378621318161 -3.256517336946987 3.886634482484201 -4.611683760687306 5.357822461002701 -5.629876533798809 6.829010439521203 -6.648069306910313 7.851855605669707 -7.674207086465852 8.87470077181821 -8.700344866021391 8.817198491888536 -8.513279244768452 8.759696211958865 -8.326213623515514 9.590692708059258 -9.679905630872334 10.421689204159652 -11.033597638229153 11.209970828407636 -11.122023694169682 11.99825245265562 -11.210449750110211 11.318344977167289 -10.6692093429127 10.638437501678956 -10.127968935715188 11.509813309767459 -11.801739965516955 12.38118911785596 -13.475510995318723 13.783741268890813 -14.901703531164781 15.186293419925665 -16.32789606701084 16.517251344762805 -17.325795508619667 17.84820926959994 -18.323694950228493 19.956121427571027 -18.3528298217892 22.064033585542113 -18.38196469334991 24.582826295139647 -17.583038695804795 27.10161900473718 -16.78411269825968 28.89754519697462 -17.14381701547395 30.693471389212057 -17.503521332688216 32.73522626129408 -18.5649292804774 34.776981133376104 -19.626337228266586 36.31654134176448 -20.17845421890992 37.85610155015286 -20.730571209553254 39.63293679053055 -20.505296837525854 41.40977203090824 -20.280022465498455 43.222632424411394 -19.3917884058388 45.035492817914545 -18.503554346179143 46.717237219360086 -17.614686644694924 48.39898162080563 -16.725818943210705 50.22408998279202 -16.29207834172938 52.04919834477842 -15.858337740248055 53.780720013045936 -16.200179427002375 55.51224168131346 -16.542021113756697 57.14103652895696 -18.009516609674076 58.769831376600465 -19.477012105591456 60.36281121779312 -20.312208991708854 61.95579105898578 -21.14740587782625 63.79165426846102 -22.187613798581605 65.62751747793627 -23.22782171933696 67.1594709054551 -24.401246546599594 68.69142433297392 -25.574671373862234 70.18234042224114 -26.677307957744155 71.67325651150834 -27.779944541626076 72.98495175290023 -29.054368677046 74.29664699429212 -30.32879281246592 75.75599547134982 -31.52081201711338 77.21534394840754 -32.71283122176084 79.33408884955057 -33.38476996763507 81.45283375069359 -34.05670871350931 83.89899106594218 -33.463288835610115 86.34514838119078 -32.86986895771091 88.27760020365938 -31.312677817467808 90.21005202612795 -29.755486677224706 93.41424534097672 -27.357082086689292 96.61843865582547 -24.95867749615388 99.80747625012133 -23.105553696281802 102.99651384441718 -21.252429896409726 104.68048584921816 -20.99503049246937 106.36445785401914 -20.737631088529014 107.9444675931793 -22.323445757865915 109.52447733233944 -23.909260427202817 112.01436768976095 -26.19785217523861 114.50425804718246 -28.4864439232744 115.29984114523512 -28.360357765297366 116.09542424328778 -28.234271607320334 116.66495290587272 -27.66463375075296 117.23448156845768 -27.094995894185583 117.36041520403475 -26.299388638957968 117.48634883961181 -25.503781383730352 118.16665788858191 -25.83608513041667 118.84696693755201 -26.16838887710299 121.66832334501225 -27.38771699045457 124.4896797524725 -28.60704510380615 127.39409323745514 -29.535524192183882 130.29850672243776 -30.464003280561613 132.3660278212899 -31.357652465303474 134.433548920142 -32.251301650045335 135.97088283686878 -32.62090529854578 137.5082167535956 -32.99050894704622 139.20049422882508 -33.11865079843352 140.89277170405455 -33.24679264982082 142.93274226196388 -33.06723324966791 144.9727128198732 -32.887673849515004 147.518261512995 -31.764106359000635 150.06381020611678 -30.640538868486264 152.89561802613161 -28.85012492820583 155.72742584614645 -27.059710987925396 159.65913528152254 -24.696510035984566 163.5908447168986 -22.333309084043737 163.68120829170334 -21.63942782703381 163.7715718665081 -20.945546570023883 163.43682436448506 -20.331070464409933 163.10207686246198 -19.71659435879598 162.47008045173476 -19.416232391647867 161.83808404100753 -19.11587042449975 161.61500716852055 -19.597315516828857 161.39193029603356 -20.07876060915796 160.77297718316856 -21.900083118207863 160.1540240703036 -23.721405627257766 160.5422048524967 -25.51678604975673 160.93038563468983 -27.31216647225569 161.92239862899868 -29.795428525652873 162.9144116233075 -32.27869057905006 164.5562748563253 -34.36897005322946 166.1981380893431 -36.459249527408865 167.0204443078449 -36.42555600665481 167.84275052634675 -36.39186248590075 168.48820567709788 -35.881264386906636 169.13366082784898 -35.37066628791252 169.35572298147616 -34.57819472990302 169.57778513510334 -33.78572317189351 170.0687070390702 -34.15265686241154 170.55962894303707 -34.51959055292957 173.05956525282244 -35.93534435796761 175.55950156260784 -37.35109816300565 179.6353205288661 -38.77420411111656 183.7111394951243 -40.19731005922746 187.31786203319928 -41.93913192435151 190.9245845712742 -43.68095378947555 193.3394865528483 -44.88026282307118 195.7543885344224 -46.0795718566668 197.78090476470408 -46.8165907474638 199.80742099498573 -47.553609638260795 201.35903291319715 -47.043657791641685 202.91064483140855 -46.533705945022575 204.40513463963444 -45.75960189491319 205.89962444786033 -44.98549784480381 207.41021347568272 -44.94048902893907 208.9208025035051 -44.89548021307432 210.2359848374109 -46.26068845558589 211.5511671713167 -47.62589669809747 213.27118159329586 -49.19794886992197 214.99119601527502 -50.77000104174647 216.80176855182552 -51.870668199739384 218.612341088376 -52.97133535773231 220.2526293753141 -53.558308825275574 221.89291766225216 -54.14528229281885 223.46803404532406 -53.96287319601258 225.04315042839596 -53.780464099206306 226.48803778594484 -54.634774057598776 227.93292514349372 -55.489084015991246 229.72129598230742 -56.013435779952 231.5096668211211 -56.53778754391275 233.91390871410783 -57.28456024974662 236.31815060709457 -58.03133295558049 237.80844099823125 -58.97427420810727 239.29873138936793 -59.91721546063405 240.63667723206999 -60.8708486389194 241.97462307477207 -61.824481817204756 243.76852458243278 -62.11627644306895 245.56242609009348 -62.40807106893314 247.23641311210054 -61.97328989686958 248.9104001341076 -61.53850872480602 251.19527589438056 -60.8428127193894 253.48015165465353 -60.14711671397277 257.8803506187565 -58.88453211154422 262.28054958285946 -57.62194750911566 266.9736096592446 -56.713316875983786 271.6666697356297 -55.804686242851915 273.73636711472636 -55.09693436813899 275.8060644938231 -54.389182493426055 277.211675585895 -53.13821396065089 278.617286677967 -51.88724542787571 279.2923506605661 -49.75146136187112 279.9674146431652 -47.61567729586654 280.68149391612235 -45.72569240133184 281.3955731890794 -43.83570750679714 282.35051047688273 -41.448357375002836 283.3054477646861 -39.06100724320853 282.80244684482227 -38.47367033094885 282.29944592495843 -37.886333418689176 281.54728165744916 -37.706824397832904 280.79511738993983 -37.52731537697664 280.0810909598504 -37.82420059220365 279.367064529761 -38.121085807430674 279.46820933967615 -38.693178045307626 279.5693541495912 -39.26527028318458 281.13080043797424 -41.08159459409005 282.69224672635727 -42.89791890499553 287.3624193949815 -43.28213573874021 292.0325920636057 -43.66635257248488 295.32973978522654 -43.96529276199842 298.62688750684737 -44.26423295151196 300.80109082183486 -44.61407806721044 302.97529413682236 -44.96392318290893 304.4158790194391 -45.76570892044602 305.8564639020559 -46.56749465798312 307.4223493626557 -47.2322855584328 308.9882348232555 -47.89707645888248 310.47184980377 -48.52911303382056 311.9554647842845 -49.161149608758635 313.0445919861101 -50.147558019466786 314.1337191879357 -51.13396643017493 313.73815264377777 -52.60546768957419 313.3425860996198 -54.07696894897345 311.98950090622054 -55.475983089618886 310.63641571282136 -56.87499723026432 311.29856125677577 -59.43950730234946 311.9607068007301 -62.0040173744346 313.970374047138 -64.0597278027345 315.9800412935459 -66.1154382310344 317.5849135149846 -67.79647777294997 319.1897857364232 -69.47751731486554 320.93482312657693 -70.650570174331 322.6798605167306 -71.82362303379645 324.405447791215 -72.39456105411496 326.13103506569934 -72.96549907443347 328.46536859426374 -73.6274542955535 330.7997021228281 -74.28940951667354 334.3085269165632 -75.49157594631296 337.81735171029834 -76.69374237595237 341.4021375190471 -78.19659550609158 344.9869233277958 -79.6994486362308 348.59604409125996 -82.63530970150012 352.20516485472416 -85.57117076676944 352.82830858827117 -85.49199686370616 353.45145232181824 -85.4128229606429 353.90904893960897 -84.9824952309163 354.36664555739975 -84.55216750118969 354.4839087045752 -83.93505651125375 354.6011718517506 -83.3179455213178 354.43915342224807 -83.39690342562803 354.2771349927455 -83.47586132993825 353.9721375311456 -84.12942453411247 353.6671400695457 -84.78298773828669 354.4422085666566 -86.36615946932022 355.2172770637674 -87.94933120035377 356.3278977640563 -89.29971368672128 357.43851846434507 -90.6500961730888 359.0957611817714 -91.8901552345191 360.75300389919784 -93.1302142959494 362.33994609693275 -93.86858117998744 363.9268882946676 -94.60694806402549 365.4335355100226 -95.03301347652013 366.94018272537755 -95.45907888901478 368.8365970793808 -95.02991178376166 370.73301143338404 -94.60074467850853 373.02244793262963 -94.39858420284011 375.3118844318752 -94.19642372717168 378.08711540076206 -94.74500964951866 380.86234636964895 -95.29359557186567 383.4284558480068 -96.16016149827897 385.99456532636475 -97.02672742469227 388.6091684149758 -98.07952059434083 391.22377150358676 -99.13231376398939 392.9868545161802 -100.13817818714506 394.74993752877356 -101.14404261030074 396.2955383471174 -102.57817448778526 397.8411391654612 -104.01230636526978 399.38322825874127 -104.58498532473743 400.92531735202135 -105.15766428420507 403.271659695319 -104.26050005492124 405.6180020386166 -103.36333582563742 409.6758127279043 -101.21837853139539 413.733623417192 -99.07342123715337 417.634148099098 -97.90366724166734 421.534672781004 -96.7339132461813 424.86024022664014 -95.78176224689108 428.18580767227627 -94.82961124760087 430.8613375016588 -94.22363215098702 433.5368673310413 -93.61765305437316 436.8781883538338 -93.10071754090835 440.2195093766264 -92.58378202744353 442.6898634417159 -92.09608499674506 445.1602175068054 -91.60838796604659 446.6186848426604 -91.43942604679658 448.0771521785154 -91.27046412754657 449.4801606253483 -91.86871502251785 450.8831690721811 -92.46696591748912 452.3861885102875 -93.08870335937215 453.8892079483939 -93.71044080125519 455.809827317996 -94.10334108412181 457.73044668759815 -94.49624136698841 459.7926939878587 -95.10546913208898 461.8549412881193 -95.71469689718954 463.95289404137486 -96.53488567692239 466.0508467946305 -97.35507445665525 468.8710441758974 -98.89211018741477 471.69124155716435 -100.4291459181743 474.0366159158267 -102.43953649081656 476.38199027448906 -104.44992706345883 477.8426870734249 -106.31399827309411 479.3033838723607 -108.17806948272938 480.5165014783596 -109.26058523706078 481.7296190843585 -110.34310099139216 483.5366801098078 -111.03443087812019 485.343741135257 -111.7257607648482 488.3815211325578 -111.88786339682474 491.4193011298586 -112.0499660288013 496.2155657443736 -112.37528298165196 501.0118303588886 -112.70059993450265 505.89713057094707 -112.56829339576754 510.7824307830056 -112.43598685703243 514.4657979574145 -112.36230754769025 518.1491651318232 -112.28862823834808 520.1037157509681 -111.89608403740382 522.058266370113 -111.50353983645958 523.9575022469551 -110.87204660937505 525.8567381237972 -110.2405533822905 528.2486189901529 -109.78405078598286 530.6404998565087 -109.32754818967521 534.0555474728403 -111.13910155367034 537.470595089172 -112.95065491766547 538.4482259573167 -114.22647086210398 539.4258568254613 -115.5022868065425 541.2871574050291 -116.58270972632005 543.148457984597 -117.66313264609758 548.6001892502724 -119.29739967507246 554.0519205159477 -120.93166670404732 558.3167134171536 -121.9760567347322 562.5815063183595 -123.02044676541709 565.5005807875385 -123.70049210044964 568.4196552567175 -124.38053743548218 568.7841361349082 -124.09416430342966 569.1486170130988 -123.80779117137716 569.2751623340065 -123.36187395587123 569.4017076549142 -122.9159567403653 569.2419814070694 -122.4808206615605 569.0822551592246 -122.04568458275571 569.4398762367057 -121.88245290226594 569.7974973141867 -121.71922122177617 570.8449645288651 -120.47337332509014 571.8924317435435 -119.22752542840412 571.460078304247 -118.74771534181168 571.0277248649503 -118.26790525521925 570.3959182921826 -118.13386171648993 569.7641117194149 -117.99981817776062 569.174180649658 -118.26274126271673 568.584249579901 -118.52566434767283 568.7262395216922 -119.07836009366385 568.8682294634833 -119.63105583965486 569.8343691754771 -121.59269082894923 570.800508887471 -123.5543258182436 572.7442574650526 -124.97056648568869 574.6880060426341 -126.38680715313377 575.3566323135557 -128.18808582264793 576.0252585844772 -129.9893644921621 574.5940613785233 -131.36285175748407 573.1628641725695 -132.73633902280602 571.565979073464 -134.72000021042476 569.9690939743584 -136.7036613980435 570.1128105838651 -138.47264994394448 570.2565271933718 -140.24163848984546 571.0868374022475 -142.0427220671705 571.9171476111234 -143.84380564449555 573.1514140404556 -145.16068092063765 574.3856804697878 -146.47755619677974 575.7316796409522 -148.1604207631579 577.0776788121166 -149.8432853295361 577.9500605533135 -151.86694252455692 578.8224422945103 -153.89059971957772 580.2418494765818 -156.03399282287086 581.6612566586532 -158.177385926164 583.2403755728569 -159.70684935853797 584.8194944870608 -161.23631279091194 586.7173672279044 -161.56110782258781 588.6152399687481 -161.88590285426372 590.432847295961 -161.89238472801884 592.2504546231739 -161.89886660177393 593.6792650086467 -162.5797948793355 595.1080753941194 -163.2607231568971 596.0954563799918 -165.50119421057363 597.0828373658642 -167.74166526425017 598.9223456857114 -168.5203027455947 600.7618540055588 -169.29894022693924 603.909164885253 -170.31690761098017 607.0564757649472 -171.3348749950211 613.0258263575163 -173.38893246398328 618.9951769500852 -175.44298993294547 623.505133499066 -177.0291923789507 628.0150900480467 -178.61539482495598 629.8816769709915 -179.16504744717278 631.7482638939363 -179.71470006938958 632.4419070544968 -179.76965652512382 633.1355502150575 -179.8246129808581 631.9577953960058 -180.98267504831986 630.7800405769542 -182.14073711578163 630.509380213677 -183.8731743787722 630.2387198503998 -185.6056116417628 631.0341169262609 -187.33975873068738 631.8295140021221 -189.07390581961195 631.7488242729936 -190.0347611820047 631.6681345438651 -190.99561654439745 631.9229053006381 -190.64764171412645 632.1776760574111 -190.29966688385542 631.0094968950078 -191.60099656298496 629.8413177326046 -192.90232624211453 628.9924742117937 -194.69987691792932 628.1436306909827 -196.49742759374413 628.1230013423979 -198.17796226489006 628.102371993813 -199.85849693603598 628.090689943277 -201.67068853944804 628.079007892741 -203.4828801428601 628.0734281952059 -205.08116835892253 628.0678484976708 -206.67945657498493 628.3875461292986 -207.72552445968182 628.7072437609264 -208.77159234437875 629.322171281787 -208.72223070588396 629.9370988026475 -208.67286906738917 628.6649062555495 -209.9595160691506 627.3927137084514 -211.24616307091205 626.5638144339205 -213.2492932860435 625.7349151593896 -215.25242350117497 625.0218164602677 -216.6974764677266 624.3087177611459 -218.14252943427823 623.5716484397497 -219.7977389189394 622.8345791183533 -221.45294840360052 622.3567026033569 -223.2411737644561 621.8788260883605 -225.0293991253117 621.3526643194934 -226.79853071576065 620.8265025506264 -228.56766230620963 620.376060159678 -230.1921494676667 619.9256177687295 -231.81663662912376 619.5430138996885 -233.45127416211167 619.1604100306474 -235.08591169509958 619.0196505325805 -237.01279590752353 618.8788910345136 -238.93968011994744 618.3839679246993 -240.52647158505374 617.889044814885 -242.11326305016007 617.8232266516799 -243.2211880671381 617.7574084884748 -244.32911308411613 618.4800564827988 -243.9041650287694 619.2027044771227 -243.4792169734227 618.0221804440182 -244.44506274390523 616.8416564109136 -245.41090851438776 616.3249008478001 -246.97682869694844 615.8081452846865 -248.54274887950913 615.3228280506279 -250.49241628666874 614.8375108165693 -252.44208369382835 614.6927150588447 -253.8348223084549 614.5479193011199 -255.22756092308146 614.815321617242 -255.7134536387752 615.0827239333642 -256.19934635446896 614.4260518483036 -257.14488913355 613.769379763243 -258.09043191263106 614.2768341140186 -258.42138582618827 614.7842884647941 -258.7523397397454 613.3919753551525 -260.42010787261165 611.9996622455109 -262.08787600547794 611.0567729299707 -264.95870948301206 610.1138836144305 -267.82954296054623 609.369524645191 -269.3740784503449 608.6251656759513 -270.91861394014353 608.2545334941715 -272.70612887352 607.8839013123916 -274.49364380689656 607.4904994348307 -276.4070464892294 607.0970975572698 -278.32044917156225 607.0945888767739 -279.9917524750483 607.092080196278 -281.66305577853444 607.4818161476231 -283.7291003653229 607.8715520989683 -285.7951449521113 609.1391786159452 -287.9221146414237 610.406805132922 -290.04908433073615 611.2005269982199 -291.7085261776879 611.9942488635177 -293.36796802463954 612.8667848882912 -295.0026689476583 613.7393209130648 -296.63736987067716 614.1231762839966 -298.3985033626194 614.5070316549285 -300.15963685456165 614.9158304016613 -301.819598639793 615.3246291483941 -303.4795604250244 616.0169982808324 -305.1006682148399 616.7093674132706 -306.72177600465545 617.6218706815873 -308.4333894837902 618.5343739499041 -310.145002962925 619.3020278199642 -311.76468670709687 620.0696816900244 -313.3843704512688 620.9860585208987 -315.16831563393623 621.9024353517731 -316.9522608166036 623.1602105062509 -317.36958079969736 624.4179856607287 -317.7869007827912 625.4949063056458 -317.01463383926546 626.571826950563 -316.2423668957398 626.5800479420283 -314.91719267217127 626.5882689334935 -313.5920184486027 625.5210126436615 -312.80644966146497 624.4537563538295 -312.0208808743272 623.1909003472049 -312.422563602414 621.9280443405802 -312.82424633050084 621.5107243574864 -314.08202148497867 621.0934043743927 -315.33979663945655 621.8656713179183 -316.41671728437365 622.637938261444 -317.49363792929074 623.9631124850125 -317.50185892075604 625.2882867085812 -317.51007991222133 626.0738554957188 -316.44282362238926 626.8594242828566 -315.3755673325572 626.4577415547698 -314.11271132593254 626.0560588266829 -312.84985531930795 625.5609844892024 -311.597290366714 625.0659101517219 -310.34472541412003 624.1704265619342 -309.0175621998764 623.2749429721464 -307.6903989856328 621.9100372388953 -306.38886314391095 620.5451315056441 -305.0873273021891 620.9582679437989 -305.48614614689757 621.3714043819537 -305.88496499160607 621.2373891273944 -304.4974098703542 621.103373872835 -303.10985474910234 620.594833443678 -301.09599021320423 620.0862930145211 -299.08212567730607 619.6228935947098 -297.26443323549165 619.1594941748986 -295.4467407936772 618.2500911985255 -293.76080035648135 617.3406882221526 -292.0748599192856 616.3162371427314 -290.08186160517545 615.2917860633103 -288.0888632910653 614.314548513936 -286.48977435276277 613.3373109645615 -284.8906854144603 613.12279968202 -283.2181653296807 612.9082883994784 -281.5456452449011 612.7774719050774 -279.9324572337478 612.6466554106764 -278.3192692225945 613.1030388192883 -276.86652327643554 613.5594222279001 -275.41377733027656 614.0539265361089 -273.67044023469407 614.5484308443176 -271.92710313911164 615.4028218419821 -269.65382514476966 616.2572128396466 -267.3805471504277 616.8395023894952 -265.0499265976307 617.4217919393438 -262.7193060448337 617.0844234701685 -262.9234698997614 616.7470550009932 -263.12763375468916 617.2850966843234 -261.98634953117346 617.8231383676535 -260.84506530765776 618.5172039638736 -259.114067821347 619.2112695600937 -257.38307033503634 619.8390278678078 -255.25318072864698 620.4667861755219 -253.12329112225763 620.3677257234672 -251.39528889814596 620.2686652714126 -249.6672866740343 621.1230745912164 -247.6145557782096 621.9774839110203 -245.56182488238488 622.7298833563799 -243.7523048071548 623.4822828017395 -241.9427847319247 623.8445528531684 -239.54969587844204 624.2068229045971 -237.1566070249594 624.7173658851805 -235.30227073836585 625.227908865764 -233.44793445177228 625.9133325556404 -231.56351814414637 626.5987562455169 -229.67910183652046 627.0752915988066 -227.86042074936907 627.5518269520962 -226.04173966221768 627.9141431263766 -224.32534568267633 628.276459300657 -222.60895170313498 629.2452113876125 -221.0426894776599 630.2139634745678 -219.4764272521848 630.7475703613306 -217.96192661040968 631.2811772480934 -216.44742596863455 631.8208259272119 -214.6198682476446 632.3604746063303 -212.79231052665466 632.0241879018414 -213.0081204481741 631.6879011973525 -213.22393036969353 632.4920710961376 -212.04901220589352 633.2962409949226 -210.87409404209353 633.6164104636646 -209.20974454322902 633.9365799324064 -207.5453950443645 633.9308021602833 -205.9917483808846 633.9250243881601 -204.43810171740463 633.9145284969325 -202.57636832339455 633.904032605705 -200.71463492938443 633.6974202168278 -199.0599312611409 633.4908078279508 -197.40522759289735 634.1234356603338 -195.92510220685662 634.756063492717 -194.4449768208159 635.5095056550892 -192.7490705128813 636.2629478174615 -191.05316420494668 636.0386620624266 -189.3131717844846 635.8143763073917 -187.5731793640225 635.1772420975697 -185.57357836164113 634.5401078877475 -183.57397735925977 634.6408417535981 -181.4654902869388 634.7415756194489 -179.35700321461786 633.8024793491518 -178.36130423344866 632.8633830788548 -177.36560525227947 630.9448831580876 -176.57868961925533 629.0263832373205 -175.79177398623116 624.598549714352 -174.23872964901716 620.1707161913833 -172.68568531180313 614.3889064961552 -169.6827556478882 608.6070968009269 -166.67982598397327 605.9997665294323 -165.46984483650576 603.3924362579378 -164.25986368903824 601.1975718852395 -163.52435394834066 599.0027075125413 -162.7888442076431 599.1961842853877 -163.3463694577979 599.3896610582341 -163.9038947079527 599.6003120735379 -162.51567856045642 599.8109630888416 -161.12746241296017 599.0611529730747 -159.70307920770261 598.3113428573077 -158.27869600244503 596.9111453108565 -157.38709536505596 595.5109477644052 -156.49549472766688 593.8807066594318 -156.29831297169432 592.2504655544585 -156.10113121572172 590.4224406225588 -156.77845916664276 588.5944156906592 -157.4557871175638 587.4727696129946 -156.43408357550388 586.3511235353301 -155.41238003344395 585.0067773246335 -152.73678436428554 583.6624311139368 -150.06118869512716 582.4552402168044 -147.92822671419677 581.2480493196721 -145.79526473326638 580.1577963648807 -144.4507685186258 579.0675434100893 -143.10627230398524 577.7518044154658 -141.85663259646628 576.4360654208422 -140.6069928889473 575.4810227784922 -139.07608300448024 574.5259801361422 -137.54517312001317 574.6927716057367 -137.62568371652475 574.8595630753312 -137.7061943130363 576.4799042496104 -136.3555289601805 578.1002454238898 -135.0048636073247 579.3931121466977 -133.69115324607293 580.6859788695057 -132.37744288482116 581.1205624235552 -130.72031073654625 581.5551459776045 -129.06317858827137 580.8610291850287 -127.0250516964037 580.1669123924529 -124.986924804536 579.0323711765068 -123.62464679530927 577.8978299605608 -122.26236878608253 576.1428519513951 -121.18642490887152 574.3878739422294 -120.11048103166051 572.7248936622217 -119.60422668771665 571.061913382214 -119.09797234377277 571.2753376853409 -119.12650383065306 571.4887619884679 -119.15503531753336 571.6905968660058 -119.19128037296875 571.8924317435435 -119.22752542840412 571.460078304247 -118.74771534181168 571.0277248649503 -118.26790525521925 570.3959182921826 -118.13386171648993 569.7641117194149 -117.99981817776062 569.174180649658 -118.26274126271673 568.584249579901 -118.52566434767283 568.3541468693559 -121.0537921342104 568.1240441588108 -123.58191992074795 568.2718497077642 -123.98122867811506 568.4196552567175 -124.38053743548218 568.7841361349082 -124.09416430342966 569.1486170130988 -123.80779117137716 569.2751623340065 -123.36187395587123 569.4017076549142 -122.9159567403653 569.2419814070694 -122.4808206615605 569.0822551592246 -122.04568458275571 566.194427987277 -121.07780916904136 563.3066008153294 -120.10993375532699 559.1535544170686 -119.09989456712798 555.0005080188076 -118.08985537892896 549.6942876644525 -116.14086321478814 544.3880673100975 -114.19187105064731 543.0525209594764 -113.1422177648731 541.7169746088551 -112.0925644790989 540.6686152368958 -110.94229430467988 539.6202558649364 -109.79202413026087 537.1280742980066 -107.7895471950287 534.6358927310768 -105.78707025979654 531.9840550955356 -104.89027291910752 529.3322174599945 -103.9934755784185 527.1418250692598 -104.75467091775734 524.9514326785252 -105.51586625709618 523.1516240114704 -106.81090046858026 521.3518153444156 -108.10593468006435 519.6788072664682 -108.70527066238373 518.0057991885208 -109.30460664470311 514.4216128434458 -109.37077965993774 510.8374264983708 -109.43695267517236 506.1525126324941 -109.11405543474443 501.46759876661736 -108.7911581943165 497.8831163458891 -108.1188528415338 494.29863392516086 -107.4465474887511 492.16600730374466 -106.92788652685007 490.0333806823284 -106.40922556494907 488.2188415914543 -106.45993043328619 486.40430250058023 -106.51063530162332 484.89873756493944 -105.85929046877646 483.3931726292986 -105.2079456359296 482.6251392199284 -103.68585323408783 481.8571058105582 -102.16376083224604 480.5601849446001 -100.96638335072899 479.26326407864195 -99.76900586921192 477.86193241850145 -98.79626552768539 476.46060075836095 -97.82352518615885 475.0453699149215 -96.71583144714958 473.630139071482 -95.6081377081403 471.2442327307432 -94.2802101861985 468.85832639000444 -92.9522826642567 466.8291640808311 -92.32927269414799 464.8000017716577 -91.70626272403926 462.9137602863145 -91.20215274186522 461.02751880097134 -90.69804275969118 458.5438881374565 -90.18833670341215 456.06025747394176 -89.67863064713313 453.83263004053987 -88.94705230945742 451.605002607138 -88.2154739717817 449.63629633533213 -87.96320562585143 447.6675900635263 -87.71093727992117 446.12518001657133 -88.13935111360351 444.58276996961644 -88.56776494728584 442.16760524933864 -89.094297286586 439.7524405290608 -89.62082962588616 436.3016864103841 -90.16081159241588 432.8509322917074 -90.7007935589456 430.10816155521314 -91.32248438230991 427.3653908187189 -91.9441752056742 424.0177560008477 -92.90270388629659 420.6701211829765 -93.86123256691897 416.6278368108533 -95.08419729108331 412.58555243873013 -96.30716201524767 408.00707947331784 -98.0500917481647 403.42860650790556 -99.79302148108175 401.1201507696121 -99.57552819094647 398.8116950313187 -99.3580349008112 397.5045997118266 -98.30780732430316 396.1975043923344 -97.25757974779509 394.4913132998105 -96.51464766896103 392.78512220728663 -95.77171559012696 390.16306586220776 -94.43055279095003 387.5410095171288 -93.0893899917731 384.91048126072707 -91.88013204288447 382.2799530043253 -90.67087409399585 379.4237626258834 -89.70636182481057 376.5675722474415 -88.7418495556253 373.9512995831266 -88.86949587492362 371.33502691881176 -88.99714219422195 369.6454105014625 -89.56734857305676 367.95579408411317 -90.13755495189156 366.16070585436717 -89.59862729334839 364.3656176246211 -89.05969963480521 362.88391204778037 -88.18764970640791 361.40220647093963 -87.31559977801061 360.1807690010253 -86.13347668799898 358.9593315311109 -84.95135359798736 357.9104162344845 -83.43016622114138 356.8615009378581 -81.90897884429539 355.23508242330945 -81.16068918938146 353.6086639087607 -80.41239953446753 352.64914111201006 -80.98957321033274 351.68961831525934 -81.56674688619795 351.8411935908648 -83.12619209288427 351.9927688664702 -84.68563729957059 352.0989668605972 -85.12840403317001 352.20516485472416 -85.57117076676944 352.82830858827117 -85.49199686370616 353.45145232181824 -85.4128229606429 353.90904893960897 -84.9824952309163 354.36664555739975 -84.55216750118969 354.4839087045752 -83.93505651125375 354.6011718517506 -83.3179455213178 352.6497496729479 -81.36438241162192 350.6983274941452 -79.41081930192604 348.5067933356256 -78.21188332392327 346.3152591771061 -77.01294734592052 342.85331874320775 -75.08439444928669 339.3913783093094 -73.15584155265284 335.7359422976459 -71.24292823852542 332.0805062859825 -69.33001492439801 329.667278544599 -68.51724103719107 327.25405080321553 -67.70446714998414 325.46396715235204 -66.97831148914344 323.67388350148855 -66.25215582830272 322.5918508674775 -65.10816028319414 321.50981823346643 -63.96416473808557 320.37823069085846 -62.7811975834873 319.2466431482505 -61.59823042888903 317.99250735232545 -60.53701262833535 316.7383715564004 -59.47579482778166 315.31848784979195 -58.30887279393238 313.8986041431835 -57.14195076008309 314.60070545941926 -57.72669133456232 315.3028067756551 -58.311431909041545 316.5690362605963 -57.83942436961897 317.8352657455375 -57.3674168301964 318.56918172798146 -54.968038427074696 319.3030977104254 -52.568660023952994 318.67347975696447 -50.72383915404994 318.04386180350355 -48.879018284146895 317.0653343819496 -47.57080955063388 316.08680696039556 -46.26260081712086 314.7704120415227 -45.536397147631845 313.4540171226498 -44.81019347814282 311.95249156979486 -44.335355211915 310.4509660169399 -43.86051694568719 308.92565273783276 -43.411697952991375 307.4003394587256 -42.962878960295555 305.4761293825147 -42.31022512525066 303.55191930630383 -41.657571290205766 301.2669427859805 -41.43965811557629 298.9819662656572 -41.22174494094682 295.6923946460349 -40.749651969148516 292.4028230264127 -40.27755899735021 288.7663631655781 -39.78306035684945 285.1299033047436 -39.28856171634868 284.2176755347149 -39.17478447977861 283.3054477646861 -39.06100724320853 282.80244684482227 -38.47367033094885 282.29944592495843 -37.886333418689176 281.54728165744916 -37.706824397832904 280.79511738993983 -37.52731537697664 280.0810909598504 -37.82420059220365 279.367064529761 -38.121085807430674 278.26292202474804 -40.45379873637299 277.15877951973505 -42.78651166531531 276.5723613270575 -44.712698611039826 275.98594313437985 -46.63888555676435 275.27501563000857 -48.75900953236402 274.5640881256373 -50.87913350796369 272.81789129806816 -51.87340417957241 271.0716944704991 -52.867674851181135 266.37230085607735 -53.71758585909884 261.6729072416556 -54.567496867016544 257.0032914425311 -55.089078828786306 252.3336756434066 -55.61066079055607 248.99954696693996 -56.431097299669126 245.66541829047333 -57.251533808782185 243.6950541369706 -56.59486314646363 241.72468998346787 -55.93819248414508 239.83971505094019 -54.85572417769106 237.95474011841253 -53.77325587123705 235.5183180996599 -52.72691181729722 233.08189608090723 -51.6805677633574 230.33877582689877 -50.809010984475094 227.59565557289028 -49.93745420559278 225.22223255763026 -49.51966292165518 222.84880954237028 -49.101871637717586 220.71279980967756 -48.31240099016722 218.57679007698488 -47.52293034261685 216.58592591068353 -45.46786903342979 214.59506174438218 -43.412807724242725 212.7984755921222 -42.17677830396849 211.00188943986225 -40.94074888369426 208.8327503762768 -40.711530188675795 206.66361131269133 -40.48231149365733 204.8261807877969 -40.837023041479625 202.9887502629024 -41.19173458930192 201.632146428105 -42.28404378016501 200.27554259330756 -43.37635297102808 198.59267974422806 -43.25397845452795 196.90981689514854 -43.13160393802783 194.57072564510818 -42.056187985464746 192.23163439506783 -40.98077203290167 188.57268538265578 -39.21518263159155 184.91373637024375 -37.44959323028144 180.92686913455404 -35.34305411265569 176.94000189886432 -33.23651499502994 174.32156956686677 -32.148458871898995 171.70313723486922 -31.06040274876805 169.34758797953356 -30.737058219206652 166.99203872419793 -30.413713689645256 165.83799169528558 -31.362854087015183 164.68394466637324 -32.31199448438511 165.20597006700592 -33.950220345086066 165.72799546763864 -35.588446205787015 165.96306677849088 -36.02384786659794 166.1981380893431 -36.459249527408865 167.0204443078449 -36.42555600665481 167.84275052634675 -36.39186248590075 168.48820567709788 -35.881264386906636 169.13366082784898 -35.37066628791252 169.35572298147616 -34.57819472990302 169.57778513510334 -33.78572317189351 168.04986675948564 -31.018647209495494 166.52194838386794 -28.25157124709748 165.36153155302065 -25.910494087466653 164.2011147221734 -23.56941692783582 163.895979719536 -22.95136300593978 163.5908447168986 -22.333309084043737 163.68120829170334 -21.63942782703381 163.7715718665081 -20.945546570023883 163.43682436448506 -20.331070464409933 163.10207686246198 -19.71659435879598 162.47008045173476 -19.416232391647867 161.83808404100753 -19.11587042449975 157.92972035040017 -21.56658142412504 154.02135665979281 -24.017292423750334 151.2263382387165 -25.342383600983503 148.43131981764017 -26.66747477821667 146.46956354639735 -27.505927757756695 144.50780727515456 -28.344380737296717 142.76855797560552 -28.512903217361384 141.02930867605644 -28.681425697426054 138.74989156247432 -28.634226484469934 136.47047444889222 -28.58702727151381 134.09255602677888 -27.764499107376068 131.71463760466554 -26.941970943238324 128.63876758030312 -25.479411367315965 125.56289755594068 -24.016851791393606 122.44069673796454 -22.985061348321082 119.31849591998841 -21.95327090524856 117.04834631206934 -22.43787368482139 114.77819670415028 -22.922476464394222 114.5499936870066 -25.066955818865075 114.32179066986293 -27.211435173335925 114.4130243585227 -27.84893954830516 114.50425804718246 -28.4864439232744 115.29984114523512 -28.360357765297366 116.09542424328778 -28.234271607320334 116.66495290587272 -27.66463375075296 117.23448156845768 -27.094995894185583 117.36041520403475 -26.299388638957964 117.48634883961181 -25.50378138373035 115.19135485608598 -23.01099382356257 112.89636087256017 -20.518206263394788 111.3168311470601 -19.148861125878376 109.73730142156003 -17.779515988361965 107.54619984330097 -17.489704224303615 105.35509826504189 -17.199892460245266 103.47198355626847 -17.891501231502343 101.58886884749505 -18.58311000275942 98.15598047965926 -20.233296051641055 94.72309211182348 -21.883482100522688 90.93958157814569 -23.74831690500212 87.1560710444679 -25.613151709481556 84.7271896962003 -26.762281263291413 82.2983083479327 -27.911410817101274 80.46002587435468 -27.734407489910755 78.62174340077667 -27.557404162720236 78.54004973872908 -27.17667592854587 78.4583560766815 -26.7959476943715 77.44328355351632 -25.595882785556757 76.42821103035115 -24.395817876742015 74.82369301218188 -23.207625010907428 73.21917499401262 -22.01943214507284 71.6410512732742 -20.951046978784376 70.06292755253578 -19.88266181249591 67.92162293282355 -18.42591239858831 65.78031831311132 -16.969162984680704 63.76823615493413 -15.851043321466367 61.756153996756936 -14.732923658252032 60.052759961528054 -13.541846601045949 58.349365926299164 -12.350769543839865 56.17832994785917 -11.572230135883476 54.00729396941918 -10.793690727927087 52.30080524644151 -10.78616382552227 50.59431652346385 -10.77863692311745 47.33214967951288 -11.85603863006035 44.069982835561916 -12.933440337003251 41.657907896943705 -13.927085783539866 39.245832958325494 -14.920731230076482 37.39132198193522 -14.280267427683611 35.53681100554495 -13.63980362529074 33.25834437051197 -12.608597263775174 30.97987773547899 -11.577390902259607 29.20147769431285 -11.329081624053625 27.423077653146713 -11.080772345847645 25.513152536129233 -11.523384391985765 23.603227419111754 -11.965996438123884 22.405653762153204 -13.126007419745417 21.208080105194654 -14.286018401366949 20.221357420766346 -13.367530247593152 19.234634736338034 -12.449042093819356 17.83166880945491 -10.951761143779585 16.428702882571784 -9.454480193739816 15.208037349819472 -8.24771010003116 13.98737181706716 -7.040940006322505 13.420695234930111 -6.598534416728638 12.854018652793062 -6.15612882713477 11.921432698094641 -5.064278444637341 10.98884674339622 -3.9724280621399117 9.731553974354654 -2.8785898232405707 8.474261205313088 -1.78475158434123 7.02224584163706 -0.7419890325857665 5.570230477961032 0.3007735191696971 4.401647608904455 0.6791872161881822 3.2330647398478787 1.0576009132066675 2.4537678648478787 1.2685384132066675 1.674470989847879 1.4794759132066675 1.0797661771589175 1.8303132114917096 0.48506136446995607 2.1811505097767516 -0.20228192551806667 2.1154251279840137 -0.8896252155060894 2.049699746191276 -1.4070652079569241 1.5925165462420208 -1.924505200407759 1.1353333462927657 -2.074397405343676 0.46132077148217004 -2.2242896102795924 -0.21269180332842563 -1.1700834250637357 -1.0570213582675465 Z"></path></g></svg>